<mxfile host="app.diagrams.net" agent="Mozilla/5.0 (Windows NT 10.0; Win64; x64) AppleWebKit/537.36 (KHTML, like Gecko) Chrome/132.0.0.0 Safari/537.36" version="26.0.6">
  <diagram name="Seite-1" id="BE8__RhevHqMrVFNeZgM">
    <mxGraphModel dx="1434" dy="826" grid="1" gridSize="10" guides="1" tooltips="1" connect="1" arrows="1" fold="1" page="1" pageScale="1" pageWidth="827" pageHeight="1169" math="0" shadow="0">
      <root>
        <mxCell id="0" />
        <mxCell id="1" parent="0" />
        <mxCell id="WdBgpAkO0LIkwbje5S_M-1" value="" style="whiteSpace=wrap;html=1;aspect=fixed;" parent="1" vertex="1">
          <mxGeometry x="180" y="600" width="290" height="290" as="geometry" />
        </mxCell>
        <mxCell id="WdBgpAkO0LIkwbje5S_M-2" value="PV-Panel" style="whiteSpace=wrap;html=1;aspect=fixed;" parent="1" vertex="1">
          <mxGeometry x="60" y="715" width="80" height="80" as="geometry" />
        </mxCell>
        <mxCell id="WdBgpAkO0LIkwbje5S_M-3" value="Adafruit Feather" style="rounded=0;whiteSpace=wrap;html=1;" parent="1" vertex="1">
          <mxGeometry x="180" y="600" width="290" height="30" as="geometry" />
        </mxCell>
        <mxCell id="WdBgpAkO0LIkwbje5S_M-4" value="MPPT Controller" style="rounded=0;whiteSpace=wrap;html=1;" parent="1" vertex="1">
          <mxGeometry x="520" y="700" width="110" height="110" as="geometry" />
        </mxCell>
        <mxCell id="WdBgpAkO0LIkwbje5S_M-5" value="Dummy Load" style="rounded=0;whiteSpace=wrap;html=1;" parent="1" vertex="1">
          <mxGeometry x="680" y="712.5" width="110" height="85" as="geometry" />
        </mxCell>
        <mxCell id="WdBgpAkO0LIkwbje5S_M-6" value="Temperature Sensor" style="rounded=0;whiteSpace=wrap;html=1;" parent="1" vertex="1">
          <mxGeometry x="65" y="640" width="70" height="60" as="geometry" />
        </mxCell>
        <mxCell id="WdBgpAkO0LIkwbje5S_M-7" value="LoRa" style="rounded=0;whiteSpace=wrap;html=1;" parent="1" vertex="1">
          <mxGeometry x="180" y="630" width="290" height="60" as="geometry" />
        </mxCell>
        <mxCell id="WdBgpAkO0LIkwbje5S_M-8" value="Current sensor" style="rounded=0;whiteSpace=wrap;html=1;" parent="1" vertex="1">
          <mxGeometry x="180" y="830" width="150" height="60" as="geometry" />
        </mxCell>
        <mxCell id="WdBgpAkO0LIkwbje5S_M-9" value="Voltage sensor&amp;nbsp;" style="rounded=0;whiteSpace=wrap;html=1;" parent="1" vertex="1">
          <mxGeometry x="330" y="830" width="140" height="60" as="geometry" />
        </mxCell>
        <mxCell id="WdBgpAkO0LIkwbje5S_M-10" value="" style="whiteSpace=wrap;html=1;aspect=fixed;" parent="1" vertex="1">
          <mxGeometry x="190" y="160" width="270" height="270" as="geometry" />
        </mxCell>
        <mxCell id="WdBgpAkO0LIkwbje5S_M-11" value="Raspberry" style="rounded=0;whiteSpace=wrap;html=1;" parent="1" vertex="1">
          <mxGeometry x="190" y="160" width="270" height="50" as="geometry" />
        </mxCell>
        <mxCell id="WdBgpAkO0LIkwbje5S_M-12" value="LoRa" style="rounded=0;whiteSpace=wrap;html=1;" parent="1" vertex="1">
          <mxGeometry x="190" y="210" width="140" height="80" as="geometry" />
        </mxCell>
        <mxCell id="WdBgpAkO0LIkwbje5S_M-13" value="Temperature Sensor" style="rounded=0;whiteSpace=wrap;html=1;" parent="1" vertex="1">
          <mxGeometry x="180" y="690" width="290" height="70" as="geometry" />
        </mxCell>
        <mxCell id="WdBgpAkO0LIkwbje5S_M-14" value="Wifi" style="rounded=0;whiteSpace=wrap;html=1;" parent="1" vertex="1">
          <mxGeometry x="330" y="210" width="130" height="80" as="geometry" />
        </mxCell>
        <mxCell id="WdBgpAkO0LIkwbje5S_M-16" value="Data Backup" style="rounded=0;whiteSpace=wrap;html=1;" parent="1" vertex="1">
          <mxGeometry x="190" y="430" width="270" height="70" as="geometry" />
        </mxCell>
        <mxCell id="WdBgpAkO0LIkwbje5S_M-17" value="" style="endArrow=none;html=1;rounded=0;" parent="1" edge="1">
          <mxGeometry width="50" height="50" relative="1" as="geometry">
            <mxPoint x="470" y="760" as="sourcePoint" />
            <mxPoint x="520" y="760" as="targetPoint" />
          </mxGeometry>
        </mxCell>
        <mxCell id="WdBgpAkO0LIkwbje5S_M-18" value="" style="endArrow=none;html=1;rounded=0;entryX=0;entryY=0.5;entryDx=0;entryDy=0;" parent="1" source="WdBgpAkO0LIkwbje5S_M-4" target="WdBgpAkO0LIkwbje5S_M-5" edge="1">
          <mxGeometry width="50" height="50" relative="1" as="geometry">
            <mxPoint x="630" y="760" as="sourcePoint" />
            <mxPoint x="430" y="730" as="targetPoint" />
          </mxGeometry>
        </mxCell>
        <mxCell id="WdBgpAkO0LIkwbje5S_M-19" value="" style="endArrow=none;html=1;rounded=0;entryX=0.003;entryY=0.534;entryDx=0;entryDy=0;entryPerimeter=0;" parent="1" edge="1">
          <mxGeometry width="50" height="50" relative="1" as="geometry">
            <mxPoint x="140" y="759.81" as="sourcePoint" />
            <mxPoint x="180.87" y="759.67" as="targetPoint" />
          </mxGeometry>
        </mxCell>
        <mxCell id="WdBgpAkO0LIkwbje5S_M-20" value="" style="endArrow=none;html=1;rounded=0;entryX=1;entryY=0.5;entryDx=0;entryDy=0;" parent="1" target="WdBgpAkO0LIkwbje5S_M-6" edge="1">
          <mxGeometry width="50" height="50" relative="1" as="geometry">
            <mxPoint x="180" y="670" as="sourcePoint" />
            <mxPoint x="250" y="700" as="targetPoint" />
          </mxGeometry>
        </mxCell>
        <mxCell id="WdBgpAkO0LIkwbje5S_M-21" value="" style="endArrow=none;dashed=1;html=1;dashPattern=1 3;strokeWidth=2;rounded=0;exitX=0.5;exitY=0;exitDx=0;exitDy=0;" parent="1" source="WKufpP9nJJWYC2W3cmYn-3" edge="1">
          <mxGeometry width="50" height="50" relative="1" as="geometry">
            <mxPoint x="200" y="480" as="sourcePoint" />
            <mxPoint x="325" y="500" as="targetPoint" />
          </mxGeometry>
        </mxCell>
        <mxCell id="Kj_zLqGpn1af0UbeW8zL-1" value="RTC" style="rounded=0;whiteSpace=wrap;html=1;" parent="1" vertex="1">
          <mxGeometry x="180" y="760" width="150" height="70" as="geometry" />
        </mxCell>
        <mxCell id="Kj_zLqGpn1af0UbeW8zL-2" value="GPS" style="rounded=0;whiteSpace=wrap;html=1;" parent="1" vertex="1">
          <mxGeometry x="330" y="760" width="140" height="70" as="geometry" />
        </mxCell>
        <mxCell id="ZkDRJuLRpsM6iUqheefz-1" value="Docker" style="rounded=0;whiteSpace=wrap;html=1;labelPosition=center;verticalLabelPosition=top;align=center;verticalAlign=bottom;strokeColor=none;" parent="1" vertex="1">
          <mxGeometry x="190" y="320" width="270" height="93.5" as="geometry" />
        </mxCell>
        <mxCell id="WdBgpAkO0LIkwbje5S_M-15" value="MariaDB" style="rounded=0;whiteSpace=wrap;html=1;" parent="1" vertex="1">
          <mxGeometry x="210" y="330" width="230" height="50" as="geometry" />
        </mxCell>
        <mxCell id="YRDDwKkrEsvYfwM0_Lnx-1" value="Grafana" style="rounded=0;whiteSpace=wrap;html=1;" parent="1" vertex="1">
          <mxGeometry x="210" y="380" width="230" height="50" as="geometry" />
        </mxCell>
        <mxCell id="WKufpP9nJJWYC2W3cmYn-2" value="db_station" style="text;strokeColor=none;fillColor=none;html=1;fontSize=24;fontStyle=1;verticalAlign=middle;align=center;" vertex="1" parent="1">
          <mxGeometry x="275" y="110" width="100" height="40" as="geometry" />
        </mxCell>
        <mxCell id="WKufpP9nJJWYC2W3cmYn-3" value="dataminer" style="text;strokeColor=none;fillColor=none;html=1;fontSize=24;fontStyle=1;verticalAlign=middle;align=center;" vertex="1" parent="1">
          <mxGeometry x="275" y="560" width="100" height="40" as="geometry" />
        </mxCell>
      </root>
    </mxGraphModel>
  </diagram>
</mxfile>
